<mxfile host="app.diagrams.net" modified="2022-05-20T10:11:28.264Z" agent="5.0 (Windows NT 10.0; Win64; x64) AppleWebKit/537.36 (KHTML, like Gecko) Chrome/101.0.4951.67 Safari/537.36" etag="oqwE79TC7rJ7f38KkomM" version="18.0.8" type="github">
  <diagram id="WptA2Vf-F1otfhYMWSsw" name="Page-1">
    <mxGraphModel dx="1422" dy="772" grid="0" gridSize="10" guides="1" tooltips="1" connect="1" arrows="1" fold="1" page="1" pageScale="1" pageWidth="827" pageHeight="1169" math="0" shadow="0">
      <root>
        <mxCell id="0" />
        <mxCell id="1" parent="0" />
        <mxCell id="3pqejFtg06VVlJbQOnC8-13" value="" style="group" vertex="1" connectable="0" parent="1">
          <mxGeometry x="120" y="210" width="600" height="30" as="geometry" />
        </mxCell>
        <mxCell id="3pqejFtg06VVlJbQOnC8-1" value="" style="pointerEvents=1;verticalLabelPosition=bottom;shadow=0;dashed=0;align=center;html=1;verticalAlign=top;shape=mxgraph.electrical.waveforms.pulse_1;strokeWidth=3;" vertex="1" parent="3pqejFtg06VVlJbQOnC8-13">
          <mxGeometry width="50" height="30" as="geometry" />
        </mxCell>
        <mxCell id="3pqejFtg06VVlJbQOnC8-2" value="" style="pointerEvents=1;verticalLabelPosition=bottom;shadow=0;dashed=0;align=center;html=1;verticalAlign=top;shape=mxgraph.electrical.waveforms.pulse_1;strokeWidth=3;" vertex="1" parent="3pqejFtg06VVlJbQOnC8-13">
          <mxGeometry x="50" width="50" height="30" as="geometry" />
        </mxCell>
        <mxCell id="3pqejFtg06VVlJbQOnC8-3" value="" style="pointerEvents=1;verticalLabelPosition=bottom;shadow=0;dashed=0;align=center;html=1;verticalAlign=top;shape=mxgraph.electrical.waveforms.pulse_1;strokeWidth=3;" vertex="1" parent="3pqejFtg06VVlJbQOnC8-13">
          <mxGeometry x="100" width="50" height="30" as="geometry" />
        </mxCell>
        <mxCell id="3pqejFtg06VVlJbQOnC8-4" value="" style="pointerEvents=1;verticalLabelPosition=bottom;shadow=0;dashed=0;align=center;html=1;verticalAlign=top;shape=mxgraph.electrical.waveforms.pulse_1;strokeWidth=3;" vertex="1" parent="3pqejFtg06VVlJbQOnC8-13">
          <mxGeometry x="150" width="50" height="30" as="geometry" />
        </mxCell>
        <mxCell id="3pqejFtg06VVlJbQOnC8-5" value="" style="pointerEvents=1;verticalLabelPosition=bottom;shadow=0;dashed=0;align=center;html=1;verticalAlign=top;shape=mxgraph.electrical.waveforms.pulse_1;strokeWidth=3;" vertex="1" parent="3pqejFtg06VVlJbQOnC8-13">
          <mxGeometry x="200" width="50" height="30" as="geometry" />
        </mxCell>
        <mxCell id="3pqejFtg06VVlJbQOnC8-6" value="" style="pointerEvents=1;verticalLabelPosition=bottom;shadow=0;dashed=0;align=center;html=1;verticalAlign=top;shape=mxgraph.electrical.waveforms.pulse_1;strokeWidth=3;" vertex="1" parent="3pqejFtg06VVlJbQOnC8-13">
          <mxGeometry x="250" width="50" height="30" as="geometry" />
        </mxCell>
        <mxCell id="3pqejFtg06VVlJbQOnC8-7" value="" style="pointerEvents=1;verticalLabelPosition=bottom;shadow=0;dashed=0;align=center;html=1;verticalAlign=top;shape=mxgraph.electrical.waveforms.pulse_1;strokeWidth=3;" vertex="1" parent="3pqejFtg06VVlJbQOnC8-13">
          <mxGeometry x="300" width="50" height="30" as="geometry" />
        </mxCell>
        <mxCell id="3pqejFtg06VVlJbQOnC8-8" value="" style="pointerEvents=1;verticalLabelPosition=bottom;shadow=0;dashed=0;align=center;html=1;verticalAlign=top;shape=mxgraph.electrical.waveforms.pulse_1;strokeWidth=3;" vertex="1" parent="3pqejFtg06VVlJbQOnC8-13">
          <mxGeometry x="350" width="50" height="30" as="geometry" />
        </mxCell>
        <mxCell id="3pqejFtg06VVlJbQOnC8-9" value="" style="pointerEvents=1;verticalLabelPosition=bottom;shadow=0;dashed=0;align=center;html=1;verticalAlign=top;shape=mxgraph.electrical.waveforms.pulse_1;strokeWidth=3;" vertex="1" parent="3pqejFtg06VVlJbQOnC8-13">
          <mxGeometry x="400" width="50" height="30" as="geometry" />
        </mxCell>
        <mxCell id="3pqejFtg06VVlJbQOnC8-10" value="" style="pointerEvents=1;verticalLabelPosition=bottom;shadow=0;dashed=0;align=center;html=1;verticalAlign=top;shape=mxgraph.electrical.waveforms.pulse_1;strokeWidth=3;" vertex="1" parent="3pqejFtg06VVlJbQOnC8-13">
          <mxGeometry x="450" width="50" height="30" as="geometry" />
        </mxCell>
        <mxCell id="3pqejFtg06VVlJbQOnC8-11" value="" style="pointerEvents=1;verticalLabelPosition=bottom;shadow=0;dashed=0;align=center;html=1;verticalAlign=top;shape=mxgraph.electrical.waveforms.pulse_1;strokeWidth=3;" vertex="1" parent="3pqejFtg06VVlJbQOnC8-13">
          <mxGeometry x="500" width="50" height="30" as="geometry" />
        </mxCell>
        <mxCell id="3pqejFtg06VVlJbQOnC8-12" value="" style="pointerEvents=1;verticalLabelPosition=bottom;shadow=0;dashed=0;align=center;html=1;verticalAlign=top;shape=mxgraph.electrical.waveforms.pulse_1;strokeWidth=3;" vertex="1" parent="3pqejFtg06VVlJbQOnC8-13">
          <mxGeometry x="550" width="50" height="30" as="geometry" />
        </mxCell>
      </root>
    </mxGraphModel>
  </diagram>
</mxfile>
